<?xml version="1.0" encoding="UTF-8"?>
<svg width="400" height="300" viewBox="0 0 400 300" fill="none" xmlns="http://www.w3.org/2000/svg">
  <!-- Фон с градиентом -->
  <defs>
    <linearGradient id="bg-gradient" x1="0%" y1="0%" x2="100%" y2="100%">
      <stop offset="0%" stop-color="#e8eaf6" />
      <stop offset="100%" stop-color="#e1f5fe" />
    </linearGradient>
    
    <!-- Градиенты для жидкостей в пробирках -->
    <linearGradient id="blood-gradient" x1="0%" y1="0%" x2="0%" y2="100%">
      <stop offset="0%" stop-color="#ef5350" />
      <stop offset="100%" stop-color="#b71c1c" />
    </linearGradient>
    
    <linearGradient id="urine-gradient" x1="0%" y1="0%" x2="0%" y2="100%">
      <stop offset="0%" stop-color="#fff176" />
      <stop offset="100%" stop-color="#ffd54f" />
    </linearGradient>
    
    <linearGradient id="blue-gradient" x1="0%" y1="0%" x2="0%" y2="100%">
      <stop offset="0%" stop-color="#81d4fa" />
      <stop offset="100%" stop-color="#29b6f6" />
    </linearGradient>
    
    <!-- Блики -->
    <linearGradient id="glass-shine" x1="0%" y1="0%" x2="100%" y2="0%">
      <stop offset="0%" stop-color="rgba(255,255,255,0)" />
      <stop offset="50%" stop-color="rgba(255,255,255,0.5)" />
      <stop offset="100%" stop-color="rgba(255,255,255,0)" />
    </linearGradient>
  </defs>
  
  <!-- Фон -->
  <rect width="400" height="300" fill="url(#bg-gradient)" rx="20" ry="20"/>
  
  <!-- Микроскоп -->
  <g transform="translate(240, 120)">
    <!-- Основание -->
    <path d="M-40,120 L40,120 L30,90 L-30,90 Z" fill="#455a64" stroke="#37474f" stroke-width="1.5"/>
    <ellipse cx="0" cy="90" rx="35" ry="5" fill="#546e7a" stroke="#37474f" stroke-width="1"/>
    
    <!-- Стойка -->
    <rect x="-5" y="40" width="10" height="50" fill="#78909c" stroke="#546e7a" stroke-width="1"/>
    
    <!-- Предметный столик -->
    <rect x="-25" y="40" width="50" height="8" fill="#90a4ae" stroke="#78909c" stroke-width="1"/>
    <circle cx="0" cy="44" r="5" fill="#eceff1" stroke="#cfd8dc" stroke-width="1"/>
    
    <!-- Объектив -->
    <path d="M-8,40 L8,40 L5,20 L-5,20 Z" fill="#90a4ae" stroke="#78909c" stroke-width="1"/>
    <rect x="-4" y="16" width="8" height="4" fill="#78909c" stroke="#546e7a" stroke-width="0.5"/>
    
    <!-- Окуляр и трубка -->
    <rect x="-6" y="-15" width="12" height="35" rx="2" fill="#78909c" stroke="#546e7a" stroke-width="1"/>
    <ellipse cx="0" cy="-15" rx="8" ry="3" fill="#546e7a" stroke="#455a64" stroke-width="0.5"/>
    <circle cx="0" cy="-20" r="10" fill="#455a64" stroke="#37474f" stroke-width="1"/>
    
    <!-- Линза окуляра -->
    <circle cx="0" cy="-20" r="5" fill="#eceff1" stroke="#cfd8dc" stroke-width="0.5">
      <animate attributeName="fill-opacity" values="0.9;0.7;0.9" dur="3s" repeatCount="indefinite"/>
    </circle>
    <circle cx="0" cy="-20" r="2" fill="#90a4ae"/>
    
    <!-- Регулятор фокуса -->
    <circle cx="10" cy="65" r="8" fill="#455a64" stroke="#37474f" stroke-width="1"/>
    <path d="M10,59 L10,71" stroke="#b0bec5" stroke-width="1.5"/>
    <path d="M4,65 L16,65" stroke="#b0bec5" stroke-width="1.5"/>
  </g>
  
  <!-- Первая пробирка (кровь) -->
  <g transform="translate(90, 150)">
    <!-- Пробирка -->
    <rect x="-15" y="-70" width="30" height="100" rx="5" fill="#eceff1" stroke="#cfd8dc" stroke-width="1.5"/>
    
    <!-- Содержимое (кровь) -->
    <rect x="-11" y="-40" width="22" height="66" rx="3" fill="url(#blood-gradient)">
      <animate attributeName="height" values="66;63;66" dur="3s" repeatCount="indefinite"/>
    </rect>
    
    <!-- Крышка -->
    <rect x="-15" y="-80" width="30" height="10" rx="3" fill="#f44336" stroke="#d32f2f" stroke-width="1"/>
    
    <!-- Метки на пробирке -->
    <line x1="-15" y1="-40" x2="-5" y2="-40" stroke="#cfd8dc" stroke-width="1"/>
    <line x1="-15" y1="-20" x2="-5" y2="-20" stroke="#cfd8dc" stroke-width="1"/>
    <line x1="-15" y1="0" x2="-5" y2="0" stroke="#cfd8dc" stroke-width="1"/>
    <line x1="-15" y1="20" x2="-5" y2="20" stroke="#cfd8dc" stroke-width="1"/>
    
    <!-- Блик -->
    <rect x="5" y="-35" width="6" height="55" rx="3" fill="white" opacity="0.2"/>
    
    <!-- Этикетка -->
    <rect x="-10" y="-10" width="20" height="15" rx="1" fill="white" opacity="0.8"/>
    <line x1="-5" y1="-5" x2="5" y2="-5" stroke="#90a4ae" stroke-width="0.5"/>
    <line x1="-5" y1="0" x2="5" y2="0" stroke="#90a4ae" stroke-width="0.5"/>
    
    <!-- Капля крови рядом -->
    <path d="M20,-20 Q30,-35 40,-20 Q50,-5 40,5 Q30,15 20,5 Q10,-5 20,-20 Z" fill="#ef5350" opacity="0.7"/>
    <ellipse cx="30" cy="-5" rx="5" ry="3" fill="white" opacity="0.3"/>
  </g>
  
  <!-- Вторая пробирка (моча) -->
  <g transform="translate(140, 150)">
    <!-- Пробирка -->
    <rect x="-15" y="-70" width="30" height="100" rx="5" fill="#eceff1" stroke="#cfd8dc" stroke-width="1.5"/>
    
    <!-- Содержимое (моча) -->
    <rect x="-11" y="-25" width="22" height="51" rx="3" fill="url(#urine-gradient)">
      <animate attributeName="height" values="51;48;51" dur="2.5s" repeatCount="indefinite"/>
    </rect>
    
    <!-- Крышка -->
    <rect x="-15" y="-80" width="30" height="10" rx="3" fill="#ffc107" stroke="#ffa000" stroke-width="1"/>
    
    <!-- Метки на пробирке -->
    <line x1="-15" y1="-40" x2="-5" y2="-40" stroke="#cfd8dc" stroke-width="1"/>
    <line x1="-15" y1="-20" x2="-5" y2="-20" stroke="#cfd8dc" stroke-width="1"/>
    <line x1="-15" y1="0" x2="-5" y2="0" stroke="#cfd8dc" stroke-width="1"/>
    <line x1="-15" y1="20" x2="-5" y2="20" stroke="#cfd8dc" stroke-width="1"/>
    
    <!-- Блик -->
    <rect x="5" y="-20" width="6" height="40" rx="3" fill="white" opacity="0.2"/>
    
    <!-- Этикетка -->
    <rect x="-10" y="5" width="20" height="15" rx="1" fill="white" opacity="0.8"/>
    <line x1="-5" y1="10" x2="5" y2="10" stroke="#90a4ae" stroke-width="0.5"/>
    <line x1="-5" y1="15" x2="5" y2="15" stroke="#90a4ae" stroke-width="0.5"/>
  </g>
  
  <!-- Третья пробирка (другой анализ) -->
  <g transform="translate(190, 150)">
    <!-- Пробирка -->
    <rect x="-15" y="-70" width="30" height="100" rx="5" fill="#eceff1" stroke="#cfd8dc" stroke-width="1.5"/>
    
    <!-- Содержимое (синяя жидкость) -->
    <rect x="-11" y="-60" width="22" height="86" rx="3" fill="url(#blue-gradient)">
      <animate attributeName="height" values="86;83;86" dur="4s" repeatCount="indefinite"/>
    </rect>
    
    <!-- Крышка -->
    <rect x="-15" y="-80" width="30" height="10" rx="3" fill="#2196f3" stroke="#1976d2" stroke-width="1"/>
    
    <!-- Метки на пробирке -->
    <line x1="-15" y1="-40" x2="-5" y2="-40" stroke="#cfd8dc" stroke-width="1"/>
    <line x1="-15" y1="-20" x2="-5" y2="-20" stroke="#cfd8dc" stroke-width="1"/>
    <line x1="-15" y1="0" x2="-5" y2="0" stroke="#cfd8dc" stroke-width="1"/>
    <line x1="-15" y1="20" x2="-5" y2="20" stroke="#cfd8dc" stroke-width="1"/>
    
    <!-- Блик -->
    <rect x="5" y="-55" width="6" height="75" rx="3" fill="white" opacity="0.2"/>
    
    <!-- Этикетка -->
    <rect x="-10" y="-35" width="20" height="15" rx="1" fill="white" opacity="0.8"/>
    <line x1="-5" y1="-30" x2="5" y2="-30" stroke="#90a4ae" stroke-width="0.5"/>
    <line x1="-5" y1="-25" x2="5" y2="-25" stroke="#90a4ae" stroke-width="0.5"/>
  </g>
  
  <!-- Графическое представление анализа -->
  <g transform="translate(320, 80)">
    <rect x="-30" y="-20" width="60" height="40" rx="5" fill="white" stroke="#e0e0e0" stroke-width="1"/>
    
    <!-- График или диаграмма -->
    <polyline points="-25,-5 -15,5 -5,-10 5,0 15,-15 25,5" stroke="#3f51b5" stroke-width="2" fill="none"/>
    <circle cx="-25" cy="-5" r="2" fill="#3f51b5"/>
    <circle cx="-15" cy="5" r="2" fill="#3f51b5"/>
    <circle cx="-5" cy="-10" r="2" fill="#3f51b5"/>
    <circle cx="5" cy="0" r="2" fill="#3f51b5"/>
    <circle cx="15" cy="-15" r="2" fill="#3f51b5"/>
    <circle cx="25" cy="5" r="2" fill="#3f51b5"/>
  </g>
  
  <!-- Подпись -->
  <text x="200" y="270" font-family="Arial" font-size="16" font-weight="bold" text-anchor="middle" fill="#333333">Лабораторные анализы</text>
</svg> 