<?xml version="1.0" encoding="UTF-8"?>
<svg width="120" height="120" viewBox="0 0 120 120" fill="none" xmlns="http://www.w3.org/2000/svg">
  <circle cx="60" cy="60" r="60" fill="#1A237E" opacity="0.1"/>
  <circle cx="60" cy="60" r="48" fill="#1A237E" opacity="0.15"/>
  
  <!-- Ночное небо с градиентом -->
  <rect x="20" y="20" width="80" height="40" rx="5" fill="url(#nightSky)"/>
  
  <!-- Луна -->
  <circle cx="35" cy="35" r="10" fill="#FFF9C4"/>
  <circle cx="38" cy="32" r="3" fill="#1A237E" opacity="0.1"/>
  <circle cx="30" cy="38" r="2" fill="#1A237E" opacity="0.1"/>
  
  <!-- Звезды -->
  <circle cx="70" cy="30" r="1.5" fill="white"/>
  <circle cx="85" cy="35" r="1" fill="white"/>
  <circle cx="75" cy="45" r="1" fill="white"/>
  <circle cx="60" cy="25" r="1" fill="white"/>
  <circle cx="50" cy="40" r="1" fill="white"/>
  <path d="M90 30 L92 32 L94 30 L92 28 Z" fill="white"/>
  <path d="M80 25 L81 26 L82 25 L81 24 Z" fill="white"/>
  
  <!-- Дом с окнами -->
  <path d="M30 80 L60 60 L90 80 L90 100 L30 100 Z" fill="#37474F"/>
  <rect x="40" y="85" width="10" height="15" fill="#FFF9C4" opacity="0.8"/>
  <rect x="70" y="85" width="10" height="15" fill="#FFF9C4" opacity="0.8"/>
  
  <!-- Машина ветеринара ночью -->
  <rect x="50" y="75" width="20" height="10" rx="2" fill="#263238"/>
  <rect x="45" y="80" width="30" height="5" rx="1" fill="#263238"/>
  <circle cx="50" cy="85" r="2" fill="#455A64"/>
  <circle cx="70" cy="85" r="2" fill="#455A64"/>
  <rect x="53" y="77" width="14" height="5" fill="#E3F2FD" opacity="0.7"/>
  
  <!-- Фонарный свет -->
  <path d="M20 70 L30 90 L40 90 L30 70 Z" fill="#FFF9C4" opacity="0.2"/>
  <rect x="28" y="70" width="4" height="30" fill="#455A64"/>
  <circle cx="30" cy="70" r="3" fill="#FFECB3"/>
  
  <!-- Градиент для ночного неба -->
  <defs>
    <linearGradient id="nightSky" x1="20" y1="20" x2="100" y2="60" gradientUnits="userSpaceOnUse">
      <stop offset="0" stop-color="#1A237E"/>
      <stop offset="1" stop-color="#311B92"/>
    </linearGradient>
  </defs>
</svg> 
