<?xml version="1.0" encoding="UTF-8"?>
<svg width="400" height="300" viewBox="0 0 400 300" fill="none" xmlns="http://www.w3.org/2000/svg">
  <!-- Фон с градиентом -->
  <defs>
    <linearGradient id="bg-gradient" x1="0%" y1="0%" x2="100%" y2="100%">
      <stop offset="0%" stop-color="#e8f5e9" />
      <stop offset="100%" stop-color="#e3f2fd" />
    </linearGradient>
    
    <!-- Градиент для пробирки -->
    <linearGradient id="vaccine-gradient" x1="0%" y1="0%" x2="0%" y2="100%">
      <stop offset="0%" stop-color="#ffcc80" />
      <stop offset="100%" stop-color="#ff9800" />
    </linearGradient>
    
    <!-- Блики на шприце -->
    <linearGradient id="syringe-shine" x1="0%" y1="0%" x2="100%" y2="0%">
      <stop offset="0%" stop-color="rgba(255,255,255,0)" />
      <stop offset="50%" stop-color="rgba(255,255,255,0.5)" />
      <stop offset="100%" stop-color="rgba(255,255,255,0)" />
    </linearGradient>
  </defs>
  
  <!-- Фон -->
  <rect width="400" height="300" fill="url(#bg-gradient)" rx="20" ry="20"/>
  
  <!-- Пробирка с вакциной -->
  <g transform="translate(100, 100)">
    <!-- Основа пробирки -->
    <rect x="0" y="0" width="40" height="120" rx="5" fill="#eceff1" stroke="#b0bec5" stroke-width="2"/>
    
    <!-- Жидкость внутри -->
    <rect x="5" y="30" width="30" height="85" rx="3" fill="url(#vaccine-gradient)">
      <animate attributeName="height" values="85;82;85" dur="2s" repeatCount="indefinite" />
    </rect>
    
    <!-- Крышка пробирки -->
    <rect x="0" y="-15" width="40" height="15" rx="3" fill="#5c6bc0" stroke="#3949ab" stroke-width="1.5"/>
    <path d="M5,-15 L5,-5 L35,-5 L35,-15" stroke="#3949ab" stroke-width="1" fill="none"/>
    
    <!-- Метки на пробирке -->
    <line x1="0" y1="30" x2="10" y2="30" stroke="#b0bec5" stroke-width="1.5"/>
    <line x1="0" y1="50" x2="10" y2="50" stroke="#b0bec5" stroke-width="1.5"/>
    <line x1="0" y1="70" x2="10" y2="70" stroke="#b0bec5" stroke-width="1.5"/>
    <line x1="0" y1="90" x2="10" y2="90" stroke="#b0bec5" stroke-width="1.5"/>
    
    <!-- Блики на пробирке -->
    <rect x="25" y="35" width="10" height="70" fill="white" opacity="0.2" rx="5"/>
    
    <!-- Этикетка -->
    <rect x="2" y="75" width="36" height="25" fill="white" opacity="0.7" rx="2"/>
    <line x1="7" y1="82" x2="33" y2="82" stroke="#b0bec5" stroke-width="1"/>
    <line x1="7" y1="88" x2="33" y2="88" stroke="#b0bec5" stroke-width="1"/>
    <line x1="7" y1="94" x2="20" y2="94" stroke="#b0bec5" stroke-width="1"/>
  </g>
  
  <!-- Шприц -->
  <g transform="translate(180, 70) rotate(45)">
    <!-- Цилиндр шприца -->
    <rect x="0" y="0" width="130" height="30" rx="5" fill="#e0e0e0" stroke="#9e9e9e" stroke-width="1.5"/>
    
    <!-- Поршень -->
    <rect x="15" y="5" width="80" height="20" rx="3" fill="#eeeeee" stroke="#bdbdbd" stroke-width="1"/>
    <rect x="95" y="7" width="30" height="16" rx="2" fill="#eeeeee" stroke="#bdbdbd" stroke-width="1"/>
    <rect x="125" y="0" width="25" height="30" rx="2" fill="#eeeeee" stroke="#9e9e9e" stroke-width="1.5"/>
    
    <!-- Блики на шприце -->
    <rect x="20" y="7" width="70" height="6" fill="white" opacity="0.5" rx="3"/>
    
    <!-- Лекарство внутри -->
    <rect x="5" y="5" width="10" height="20" rx="2" fill="#42a5f5">
      <animate attributeName="width" values="10;8;10" dur="3s" repeatCount="indefinite" />
    </rect>
    
    <!-- Игла -->
    <rect x="-35" y="12.5" width="35" height="5" rx="2.5" fill="#90a4ae" stroke="#78909c" stroke-width="0.5"/>
    <path d="M-38,15 L-55,15" stroke="#78909c" stroke-width="1.5" stroke-linecap="round"/>
    
    <!-- Метки на шприце -->
    <line x1="20" y1="0" x2="20" y2="5" stroke="#9e9e9e" stroke-width="1"/>
    <line x1="40" y1="0" x2="40" y2="5" stroke="#9e9e9e" stroke-width="1"/>
    <line x1="60" y1="0" x2="60" y2="5" stroke="#9e9e9e" stroke-width="1"/>
    <line x1="80" y1="0" x2="80" y2="5" stroke="#9e9e9e" stroke-width="1"/>
    <text x="19" y="-5" font-family="Arial" font-size="6" fill="#616161">1</text>
    <text x="39" y="-5" font-family="Arial" font-size="6" fill="#616161">2</text>
    <text x="59" y="-5" font-family="Arial" font-size="6" fill="#616161">3</text>
    <text x="79" y="-5" font-family="Arial" font-size="6" fill="#616161">4</text>
  </g>
  
  <!-- Капли вакцины -->
  <circle cx="120" cy="200" r="8" fill="#42a5f5" opacity="0.7">
    <animate attributeName="cy" values="200;205;200" dur="2s" repeatCount="indefinite" />
  </circle>
  
  <circle cx="140" cy="220" r="5" fill="#42a5f5" opacity="0.7">
    <animate attributeName="cy" values="220;225;220" dur="2.5s" repeatCount="indefinite" />
  </circle>
  
  <!-- Медицинский крест -->
  <g transform="translate(280, 120) scale(0.8)">
    <circle cx="0" cy="0" r="40" fill="#ef5350" opacity="0.2"/>
    <rect x="-25" y="-5" width="50" height="10" rx="5" fill="#ef5350"/>
    <rect x="-5" y="-25" width="10" height="50" rx="5" fill="#ef5350"/>
  </g>
  
  <!-- Звездочки/частицы вакцины -->
  <g transform="translate(260, 80) scale(0.6)">
    <path d="M0,-15 L4,-4 L15,0 L4,4 L0,15 L-4,4 L-15,0 L-4,-4 Z" fill="#ffca28">
      <animateTransform attributeName="transform" type="rotate" from="0" to="360" dur="20s" repeatCount="indefinite"/>
    </path>
  </g>
  
  <g transform="translate(300, 200) scale(0.4)">
    <path d="M0,-15 L4,-4 L15,0 L4,4 L0,15 L-4,4 L-15,0 L-4,-4 Z" fill="#ffca28">
      <animateTransform attributeName="transform" type="rotate" from="0" to="-360" dur="15s" repeatCount="indefinite"/>
    </path>
  </g>
  
  <g transform="translate(230, 240) scale(0.5)">
    <path d="M0,-15 L4,-4 L15,0 L4,4 L0,15 L-4,4 L-15,0 L-4,-4 Z" fill="#ffca28">
      <animateTransform attributeName="transform" type="rotate" from="0" to="360" dur="18s" repeatCount="indefinite"/>
    </path>
  </g>
  
  <!-- Заголовок -->
  <text x="200" y="270" font-family="Arial" font-size="16" font-weight="bold" text-anchor="middle" fill="#333333">Вакцинация животных</text>
</svg> 
