<?xml version="1.0" encoding="UTF-8"?>
<svg width="120" height="120" viewBox="0 0 120 120" fill="none" xmlns="http://www.w3.org/2000/svg">
  <circle cx="60" cy="60" r="60" fill="#E8F5E9"/>
  <circle cx="60" cy="60" r="48" fill="#C8E6C9" opacity="0.7"/>
  
  <!-- Календарь -->
  <rect x="30" y="30" width="60" height="60" rx="3" fill="white" stroke="#4CAF50" stroke-width="2"/>
  <rect x="30" y="30" width="60" height="15" rx="3" fill="#4CAF50"/>
  
  <!-- Дни с отметками -->
  <circle cx="40" cy="55" r="5" fill="#EEEEEE"/>
  <text x="40" y="58" font-family="Arial" font-size="8" fill="#333333" text-anchor="middle">1</text>
  
  <circle cx="60" cy="55" r="5" fill="#EEEEEE"/>
  <text x="60" y="58" font-family="Arial" font-size="8" fill="#333333" text-anchor="middle">2</text>
  
  <circle cx="80" cy="55" r="5" fill="#F44336"/>
  <text x="80" y="58" font-family="Arial" font-size="8" fill="white" text-anchor="middle">3</text>
  
  <circle cx="40" cy="75" r="5" fill="#F44336"/>
  <text x="40" y="78" font-family="Arial" font-size="8" fill="white" text-anchor="middle">4</text>
  
  <circle cx="60" cy="75" r="5" fill="#EEEEEE"/>
  <text x="60" y="78" font-family="Arial" font-size="8" fill="#333333" text-anchor="middle">5</text>
  
  <circle cx="80" cy="75" r="5" fill="#EEEEEE"/>
  <text x="80" y="78" font-family="Arial" font-size="8" fill="#333333" text-anchor="middle">6</text>
  
  <!-- Праздничные элементы -->
  <path d="M90 20 C95 15, 100 20, 95 25 C100 30, 95 35, 90 30 C85 35, 80 30, 85 25 C80 20, 85 15, 90 20 Z" fill="#FF8A80"/>
  <path d="M30 20 C35 15, 40 20, 35 25 C40 30, 35 35, 30 30 C25 35, 20 30, 25 25 C20 20, 25 15, 30 20 Z" fill="#FF8A80"/>
  
  <!-- Подарочная коробка -->
  <rect x="85" y="85" width="15" height="15" rx="2" fill="#E91E63"/>
  <rect x="92" y="82" width="2" height="21" fill="#C2185B"/>
  <rect x="83" y="92" width="20" height="2" fill="#C2185B"/>
  <path d="M95 80 C97 78, 100 83, 98 85 Z" fill="#FF80AB"/>
  <path d="M89 80 C87 78, 84 83, 86 85 Z" fill="#FF80AB"/>
  
  <!-- Надпись "Выходной" -->
  <rect x="35" y="37" width="50" height="2" fill="white"/>
  <text x="60" y="37" font-family="Arial" font-size="7" fill="white" text-anchor="middle" font-weight="bold">ВЫХОДНОЙ</text>
</svg> 
